<svg id="Layer_1" data-name="Layer 1" xmlns="http://www.w3.org/2000/svg" viewBox="0 0 288 288"><defs><style>.cls-1{fill:#1f3d0c;stroke:#231f20;}.cls-1,.cls-2,.cls-3,.cls-8{stroke-miterlimit:10;}.cls-2{fill:none;}.cls-2,.cls-3,.cls-8{stroke:#fff;}.cls-3,.cls-4,.cls-7,.cls-8{fill:#fff;}.cls-4{font-size:38px;font-family:Gastromond-Regular, Gastromond;}.cls-5{letter-spacing:-0.09em;}.cls-6{letter-spacing:0.06em;}.cls-8{stroke-width:0.5px;}</style></defs><rect class="cls-1" width="289.98" height="289.98"/><polygon class="cls-2" points="105.92 193.39 93.31 193.39 94.31 166.49 94.66 156.92 94.78 153.88 95.14 144.17 95.25 141.19 95.61 131.48 95.72 128.49 95.83 125.52 103.51 125.52 103.62 128.51 103.72 131.47 104.07 141.2 104.17 144.16 104.52 153.89 104.63 156.97 104.96 166.44 105.92 193.39"/><path class="cls-3" d="M119.83,99.5c0,2.7-8.9,4.89-19.87,4.89S80.08,102.2,80.08,99.5,89,94.61,100,94.61,119.83,96.8,119.83,99.5Z"/><ellipse class="cls-3" cx="100.11" cy="111.57" rx="22.55" ry="4.89"/><path class="cls-3" d="M134.35,123.65c0,2.53-13.47,4.61-30.73,4.86q-1.73,0-3.51,0c-1.49,0-3,0-4.39,0-16.84-.3-29.85-2.35-29.85-4.84,0-2.7,15.33-4.89,34.24-4.89S134.35,121,134.35,123.65Z"/><path class="cls-3" d="M143.06,136.34c0,2.55-17.12,4.64-39,4.86q-1.95,0-4,0c-1.64,0-3.27,0-4.86,0-21.44-.27-38.1-2.34-38.1-4.85s16.84-4.61,38.46-4.86q2.22,0,4.5,0l3.61,0C125.75,131.68,143.06,133.78,143.06,136.34Z"/><path class="cls-3" d="M143.83,149c0,2.53-17.24,4.62-39.31,4.86q-2.17,0-4.41,0c-1.8,0-3.58,0-5.33,0-21.63-.29-38.39-2.35-38.39-4.85s16.94-4.59,38.75-4.86c1.63,0,3.29,0,5,0,1.37,0,2.72,0,4.06,0C126.41,144.38,143.83,146.47,143.83,149Z"/><path class="cls-3" d="M121.36,161.71c0,2.26-7,4.17-16.4,4.73-1.84.11-3.77.17-5.77.17-1.68,0-3.31,0-4.88-.12C84.42,166,77,164,77,161.71s7.56-4.33,17.63-4.79c1.46-.06,3-.1,4.53-.1,1.88,0,3.7.05,5.44.15C114.24,157.5,121.36,159.42,121.36,161.71Z"/><text class="cls-4" transform="translate(139.93 145.79)"><tspan class="cls-5">F</tspan><tspan x="24.4" y="0">orest </tspan><tspan class="cls-6"><tspan x="0" y="30">Green</tspan></tspan></text><ellipse class="cls-7" cx="100.11" cy="111.57" rx="22.55" ry="4.89"/><path class="cls-8" d="M144.72,176.4h4.84a59.41,59.41,0,1,1,4.07-58.8h-4.44a55.47,55.47,0,1,0-4.47,58.8Z"/></svg>