<svg id="Layer_1" data-name="Layer 1" xmlns="http://www.w3.org/2000/svg" viewBox="0 0 288 129.64"><defs><style>.cls-1{fill:#050d01;}.cls-2{fill:none;}.cls-2,.cls-3,.cls-8{stroke:#fff;stroke-miterlimit:10;}.cls-3,.cls-4,.cls-7,.cls-8{fill:#fff;}.cls-4{font-size:38px;font-family:sans-serif; font-weight:900}.cls-5{letter-spacing:-0.09em;}.cls-6{letter-spacing:0.06em;}.cls-8{stroke-width:0.5px;}</style></defs><rect class="cls-1" width="288" height="129.64"/><polygon class="cls-2" points="105.92 116.01 93.31 116.01 94.31 89.11 94.66 79.54 94.78 76.5 95.14 66.79 95.25 63.81 95.61 54.1 95.72 51.11 95.83 48.14 103.51 48.14 103.62 51.13 103.72 54.09 104.07 63.82 104.17 66.78 104.52 76.51 104.63 79.59 104.96 89.06 105.92 116.01"/><path class="cls-3" d="M119.83,22.12c0,2.7-8.9,4.89-19.87,4.89s-19.88-2.19-19.88-4.89S89,17.23,100,17.23,119.83,19.42,119.83,22.12Z"/><ellipse class="cls-3" cx="100.11" cy="34.19" rx="22.55" ry="4.89"/><path class="cls-3" d="M134.35,46.27c0,2.53-13.47,4.61-30.73,4.86q-1.73,0-3.51,0c-1.49,0-3,0-4.39,0-16.84-.3-29.85-2.35-29.85-4.84,0-2.7,15.33-4.89,34.24-4.89S134.35,43.57,134.35,46.27Z"/><path class="cls-3" d="M143.06,59c0,2.55-17.12,4.64-39,4.86q-1.95,0-4,0c-1.64,0-3.27,0-4.86,0-21.44-.27-38.1-2.34-38.1-4.85S74,54.35,95.61,54.1q2.22,0,4.5,0l3.61,0C125.75,54.3,143.06,56.4,143.06,59Z"/><path class="cls-3" d="M143.83,71.65c0,2.53-17.24,4.62-39.31,4.86q-2.17,0-4.41,0c-1.8,0-3.58,0-5.33,0-21.63-.29-38.39-2.35-38.39-4.85s16.94-4.59,38.75-4.86c1.63,0,3.29,0,5,0,1.37,0,2.72,0,4.06,0C126.41,67,143.83,69.09,143.83,71.65Z"/><path class="cls-3" d="M121.36,84.33c0,2.26-7,4.17-16.4,4.73-1.84.11-3.77.17-5.77.17-1.68,0-3.31,0-4.88-.12C84.42,88.62,77,86.66,77,84.33S84.59,80,94.66,79.54c1.46-.06,3-.1,4.53-.1,1.88,0,3.7,0,5.44.15C114.24,80.12,121.36,82,121.36,84.33Z"/><text class="cls-4" transform="translate(139.93 68.41)"><tspan class="cls-5">F</tspan><tspan x="24.4" y="0">orest </tspan><tspan class="cls-6"><tspan x="0" y="30">Green</tspan></tspan></text><ellipse class="cls-7" cx="100.11" cy="34.19" rx="22.55" ry="4.89"/><path class="cls-8" d="M144.72,99h4.84a59.41,59.41,0,1,1,4.07-58.8h-4.44A55.47,55.47,0,1,0,144.72,99Z"/></svg>