<svg id="Layer_1" data-name="Layer 1" xmlns="http://www.w3.org/2000/svg" viewBox="0 0 288 288"><defs><style>.cls-1,.cls-6,.cls-8{fill:none;}.cls-1,.cls-2,.cls-7,.cls-8{stroke:#1f3d0c;}.cls-1,.cls-2,.cls-6,.cls-7,.cls-8{stroke-miterlimit:10;}.cls-2,.cls-3,.cls-7{fill:#1f3d0c;}.cls-3{font-size:38px;font-family:Gastromond-Regular, Gastromond;}.cls-4{letter-spacing:-0.09em;}.cls-5{letter-spacing:0.06em;}.cls-6{stroke:#231f20;}.cls-6,.cls-7,.cls-8{stroke-width:0.5px;}</style></defs><polygon class="cls-1" points="86.99 193.39 74.38 193.39 75.38 166.49 75.73 156.92 75.85 153.88 76.21 144.17 76.32 141.19 76.68 131.48 76.79 128.49 76.9 125.52 84.58 125.52 84.69 128.51 84.79 131.47 85.14 141.2 85.24 144.16 85.59 153.89 85.7 156.97 86.03 166.44 86.99 193.39"/><path class="cls-2" d="M100.9,99.5c0,2.7-8.9,4.89-19.87,4.89S61.15,102.2,61.15,99.5s8.9-4.89,19.88-4.89S100.9,96.8,100.9,99.5Z"/><ellipse class="cls-2" cx="81.18" cy="111.57" rx="22.55" ry="4.89"/><path class="cls-2" d="M115.42,123.65c0,2.53-13.47,4.61-30.73,4.86q-1.72,0-3.51,0c-1.49,0-3,0-4.39,0-16.84-.3-29.85-2.35-29.85-4.84,0-2.7,15.33-4.89,34.24-4.89S115.42,121,115.42,123.65Z"/><path class="cls-2" d="M124.13,136.34c0,2.55-17.12,4.64-39,4.86q-2,0-4,0c-1.64,0-3.27,0-4.86,0-21.44-.27-38.1-2.34-38.1-4.85s16.84-4.61,38.46-4.86q2.22,0,4.5,0l3.61,0C106.82,131.68,124.13,133.78,124.13,136.34Z"/><path class="cls-2" d="M124.9,149c0,2.53-17.24,4.62-39.31,4.86q-2.18,0-4.41,0c-1.8,0-3.58,0-5.33,0-21.63-.29-38.39-2.35-38.39-4.85s16.94-4.59,38.75-4.86c1.63,0,3.29,0,5,0,1.37,0,2.72,0,4.06,0C107.48,144.38,124.9,146.47,124.9,149Z"/><path class="cls-2" d="M102.43,161.71c0,2.26-7,4.17-16.4,4.73-1.84.11-3.77.17-5.77.17-1.68,0-3.31,0-4.88-.12C65.49,166,58.1,164,58.1,161.71s7.56-4.33,17.63-4.79c1.46-.06,3-.1,4.53-.1,1.88,0,3.7.05,5.44.15C95.31,157.5,102.43,159.42,102.43,161.71Z"/><text class="cls-3" transform="translate(121 145.79)"><tspan class="cls-4">F</tspan><tspan x="24.4" y="0">orest </tspan><tspan class="cls-5"><tspan x="0" y="30">Green</tspan></tspan></text><ellipse class="cls-6" cx="81.18" cy="111.57" rx="22.55" ry="4.89"/><path class="cls-7" d="M125.79,176.4h4.84a59.41,59.41,0,1,1,4.07-58.8h-4.44a55.47,55.47,0,1,0-4.47,58.8Z"/><path class="cls-8" d="M81.18,106.68c12.45,0,22.55,2.19,22.55,4.89s-10.1,4.89-22.55,4.89-22.55-2.19-22.55-4.89S68.73,106.68,81.18,106.68Zm44.61,69.72a55.46,55.46,0,1,1,4.47-58.8"/><ellipse class="cls-8" cx="81.18" cy="111.57" rx="22.55" ry="4.89"/></svg>